<?xml version="1.0" encoding="iso-8859-1"?>
<!-- Generator: Adobe Illustrator 16.0.0, SVG Export Plug-In . SVG Version: 6.00 Build 0)  -->
<!DOCTYPE svg PUBLIC "-//W3C//DTD SVG 1.1//EN" "http://www.w3.org/Graphics/SVG/1.1/DTD/svg11.dtd">
<svg version="1.1" id="Capa_1" xmlns="http://www.w3.org/2000/svg" xmlns:xlink="http://www.w3.org/1999/xlink" x="0px" y="0px"
	 width="28.09px" height="28.09px" viewBox="0 0 28.09 28.09" style="enable-background:new 0 0 28.09 28.09;" xml:space="preserve"
	>
<g>
	<path d="M26.211,1.599c-0.494-0.855-1.459-1.596-2.498-1.595C23.707,0.002,23.703,0,23.697,0c-1,0.016-1.301,0.039-2.254,0.452
		c-0.414,0.18-1.229,0.97-1.527,1.275c-0.023,0.028-0.051,0.056-0.08,0.083c-0.393,0.074-0.789,0.178-1.158,0.355
		c-0.336,0.161-0.627,0.356-0.895,0.613c-0.123,0.116-0.236,0.224-0.363,0.319c-0.029-0.006-0.061-0.012-0.092-0.019
		c-0.297-0.075-0.555-0.238-0.668-0.504c-0.064-0.151-0.07-0.316-0.031-0.473c0.006-0.015,0.012-0.029,0.018-0.044
		c0.254,0.053,0.365,0.336,0.307,0.42c0.068-0.109,0.037-0.391-0.115-0.517c-0.039-0.031-0.078-0.058-0.117-0.081
		c0.18-0.319,0.537-0.545,0.906-0.454c0.057,0.015,0.109,0.035,0.164,0.063c0.246,0.125,0.324,0.375,0.271,0.587
		C18,2.31,17.787,2.495,17.434,2.408c-0.004,0-0.01-0.002-0.012-0.003c-0.16-0.041-0.287-0.223-0.246-0.373
		c0.012-0.045,0.037-0.089,0.082-0.13c0.068-0.061,0.18-0.083,0.27-0.061c0.102,0.029,0.174,0.101,0.152,0.249
		c-0.002,0.019,0.012,0.036,0.029,0.039c0.02,0.003,0.035-0.01,0.037-0.029c0.029-0.178-0.076-0.293-0.203-0.322
		c-0.109-0.028-0.238-0.002-0.328,0.074c-0.057,0.049-0.09,0.105-0.104,0.165c-0.049,0.197,0.102,0.401,0.293,0.454
		c0.004,0.001,0.008,0.002,0.012,0.003c0.193,0.048,0.355,0.02,0.477-0.054c0.123-0.074,0.201-0.194,0.234-0.328
		c0.062-0.239-0.031-0.524-0.307-0.664c-0.059-0.03-0.117-0.052-0.178-0.067C17.236,1.26,16.85,1.503,16.66,1.846
		c-0.359-0.176-0.799-0.089-1.111,0.291c-0.373,0.448-0.438,1.178-0.229,1.778c0.111,0.32,0.275,0.597,0.484,0.823
		c-0.352,0.147-0.691,0.33-0.964,0.545c-0.517,0.408-0.858,0.931-1.009,1.53c-0.039,0.157-0.066,0.317-0.078,0.484
		c-0.039,0.514,0.23,1.044,0.534,1.311c0.179,0.158,0.396,0.254,0.608,0.308c0.218,0.055,0.433,0.063,0.599,0.042
		c0.102-0.015,0.189-0.038,0.246-0.075c-0.062,0.339,0.033,0.653,0.127,1.198c0.146,0.871,0.17,0.915,0.111,1.337
		c-0.004,0.035-0.012,0.069-0.02,0.102c-0.129,0.509-0.654,0.716-1.097,0.605c-0.313-0.08-0.581-0.314-0.636-0.717
		c-0.013-0.101-0.007-0.191,0.013-0.272c0.091-0.363,0.482-0.527,0.78-0.454c0.202,0.053,0.356,0.206,0.35,0.493
		c-0.002,0.023-0.004,0.047-0.01,0.071c-0.021,0.085-0.076,0.171-0.146,0.227c-0.068,0.057-0.148,0.084-0.228,0.065
		c-0.048-0.013-0.099-0.043-0.146-0.103c-0.046-0.062-0.057-0.121-0.045-0.173c0.025-0.099,0.142-0.176,0.271-0.144
		c0.012,0.003,0.025,0,0.037-0.01c0.012-0.014,0.01-0.035-0.006-0.047c0,0-0.002-0.004-0.012-0.007
		c-0.166-0.042-0.319,0.054-0.355,0.193c-0.018,0.072-0.001,0.156,0.059,0.231c0.053,0.069,0.117,0.11,0.183,0.126
		c0.208,0.049,0.403-0.142,0.454-0.341c0.006-0.029,0.014-0.057,0.014-0.086c0.01-0.315-0.176-0.504-0.401-0.559
		c-0.33-0.083-0.759,0.098-0.862,0.502c-0.021,0.089-0.027,0.188-0.014,0.298c0.057,0.429,0.348,0.688,0.683,0.772
		c0,0,0.001,0,0.002,0c0.474,0.117,1.039-0.103,1.179-0.655c0.01-0.035,0.018-0.071,0.02-0.109c0.061-0.428,0.035-0.493-0.111-1.357
		c-0.084-0.492-0.166-0.79-0.141-1.074c0.021,0.129,0.051,0.262,0.088,0.38c0.215,0.701,0.398,1.416,0.42,1.973
		c0.021,0.611,0.074,1.258-0.297,1.952c-0.111,0.213-0.586,0.638-1.007,0.565c-0.758-0.132-0.764-0.86-0.475-1.119
		c0.166-0.15,0.462-0.044,0.587,0.085c-0.071-0.396-0.58-0.454-0.89-0.266c-0.268,0.164-0.535,0.445-0.585,1.129
		c-0.025,0.369,0.184,0.895,0.693,1.175c0.551,0.302,1.242,0.407,1.746,0.243c0.965-0.315,1.438-0.772,1.705-1.32
		c-0.004,0.017-0.006,0.036-0.01,0.053c-0.004,0.015-0.008,0.03-0.012,0.045c-0.037,0.144-0.092,0.276-0.16,0.4
		c-0.09,0.108-0.195,0.245-0.312,0.403c-0.395,0.386-0.955,0.622-1.494,0.694c-0.305,0.041-0.625,0.021-0.929-0.055
		c-0.886-0.225-1.609-0.919-1.334-2.019c0.021-0.083,0.048-0.17,0.082-0.259c0.154-0.41,0.482-0.682,0.936-0.675
		c0.059,0.001,0.121,0.01,0.188,0.026c0.245,0.061,0.503,0.231,0.574,0.48c0.027,0.096,0.027,0.18,0.01,0.25
		c-0.051,0.198-0.242,0.297-0.392,0.26c-0.087-0.022-0.161-0.086-0.191-0.214c-0.007-0.027-0.007-0.052-0.001-0.073
		c0.012-0.047,0.051-0.084,0.098-0.106c0.048-0.023,0.104-0.029,0.141-0.021c0.033,0.011,0.041,0.021,0.041,0.047
		c-0.001,0.019,0.015,0.035,0.032,0.037c0.021,0,0.035-0.014,0.035-0.033c0.006-0.062-0.042-0.105-0.092-0.115
		c-0.11-0.027-0.278,0.03-0.318,0.174c-0.008,0.033-0.008,0.067,0.001,0.105c0.035,0.147,0.13,0.236,0.24,0.263
		c0.187,0.047,0.414-0.076,0.474-0.309c0.021-0.083,0.02-0.18-0.012-0.286c-0.082-0.283-0.361-0.461-0.622-0.527
		c-0.07-0.018-0.14-0.027-0.202-0.027c-0.48-0.007-0.839,0.288-1.001,0.719c-0.033,0.09-0.062,0.179-0.084,0.266
		c-0.142,0.567-0.023,1.039,0.246,1.392c0.269,0.355,0.685,0.592,1.141,0.708c0.311,0.079,0.637,0.098,0.952,0.057
		c0.461-0.062,0.939-0.24,1.32-0.529c-0.436,0.628-1.088,1.486-1.279,2.312c-0.455,1.976,1.922,5.537,1.961,6.832
		c0.09,2.94-7.678-0.125-9.9-3.518c-0.379-0.579,2.367-6.179,0.415-8.734c-0.556,2.214-3.018,2.077-2.423,5.252
		c-1.58-1.742-2.937-0.354-4.474-1.315c-0.105,4.057,5.519,4.843,5.905,5.373c0.191,0.261,2.529,4.069,5.389,5.554
		c5.516,2.862,8.051,0.989,8.646-2.186c0.445-2.372,0.121-5.656-0.035-6.545c-0.154-0.89,0.691-5.107,1.604-6.317
		c0.275-0.363,1.225-1.313,0.75-1.746c-1.098-1.002-2.301-2.55-2.414-3.918c0,0,0.299-0.695,0.863-1.052
		c0.025,0.099,0.045,0.154,0.045,0.154s0.479,0.963,0.748,1.031c0.211,0.053,0.213-0.138,0.305-0.231c0.09-0.091,0.512,0,0.512,0
		c0.197-0.046,0.076-0.354,0.076-0.354c0.197,0.348,0.318,0.193,0.318,0.193c-0.062-0.278,0.285-0.266,0.285-0.266
		c0.275,0.218,0.361,0.191,0.402,0.126c0.062-0.102,0.016-0.02,0.107-0.532c0.02-0.107,0.061-0.201,0.107-0.282
		c0.117,0.134,0.266,0.268,0.432,0.32c0,0-0.199-0.165-0.352-0.433c0.189-0.228,0.449-0.326,0.449-0.326
		c0.416-0.116,0.646-0.312,0.773-0.513c0.078-0.034,0.119-0.055,0.119-0.055C26.516,3.645,27.031,3.016,26.211,1.599z M15.881,7.182
		c-0.053,0.184-0.088,0.361-0.109,0.536c-0.16-0.066-0.338-0.086-0.49-0.037c0.096,0.017,0.17,0.051,0.229,0.096
		c0.021,0.03,0.029,0.066,0.021,0.105c-0.012,0.05-0.055,0.102-0.127,0.13c-0.039,0.016-0.09,0.018-0.143,0.004
		c-0.107-0.027-0.215-0.118-0.244-0.259c-0.016-0.08-0.016-0.166,0.007-0.253c0.03-0.122,0.104-0.246,0.237-0.359
		c0.127-0.11,0.502-0.25,0.721-0.288C15.945,6.967,15.912,7.076,15.881,7.182z M15.244,8.081c0.064,0.016,0.127,0.015,0.184-0.006
		c0.09-0.035,0.148-0.103,0.166-0.176C15.596,7.89,15.6,7.88,15.6,7.87c0.172,0.247,0.014,0.62-0.395,0.494
		C14.4,8.116,14.83,6.968,15.49,6.837c0.131-0.026,0.258-0.029,0.385-0.024c-0.23,0.055-0.525,0.173-0.658,0.282
		c-0.143,0.12-0.224,0.257-0.259,0.394c-0.022,0.096-0.022,0.192-0.007,0.283C14.985,7.939,15.113,8.048,15.244,8.081z
		 M14.547,6.251c-0.522,0.937-0.498,1.936,0.226,2.382c0.243,0.152,0.69,0.259,0.987,0.117c0.002,0.002,0,0.005,0.002,0.007
		c-0.01,0.005-0.016,0.014-0.016,0.025c0,0,0,0-0.002,0.001c-0.004,0.034-0.104,0.091-0.258,0.109
		c-0.158,0.021-0.365,0.013-0.576-0.04C14.707,8.801,14.5,8.707,14.33,8.56c-0.287-0.251-0.549-0.771-0.511-1.256
		c0.013-0.163,0.038-0.32,0.077-0.473c0.146-0.585,0.481-1.094,0.985-1.494c0.271-0.215,0.615-0.398,0.974-0.546
		c0.088,0.091,0.184,0.173,0.287,0.244C15.422,5.212,14.933,5.561,14.547,6.251z M17.068,3.306c-0.945,0.428-1.691-0.964-0.639-1.24
		c0.053-0.014,0.102-0.019,0.146-0.017c-0.004,0.012-0.008,0.024-0.012,0.035c-0.043,0.169-0.035,0.349,0.031,0.514
		c0.125,0.294,0.406,0.466,0.717,0.544c0.012,0.002,0.021,0.005,0.033,0.008C17.262,3.208,17.172,3.26,17.068,3.306z M17.766,14.095
		c0.023-0.062,0.043-0.122,0.059-0.187c0.004-0.016,0.008-0.032,0.012-0.048c0.004-0.007,0.004-0.015,0.006-0.021
		c0,0.108,0,0.169,0,0.169S17.814,14.04,17.766,14.095z M20.443,1.714c-0.158,0.022-0.326,0.047-0.494,0.077
		c0.008-0.006,0.012-0.011,0.018-0.016c0.289-0.302,1.115-1.094,1.502-1.26c0.73-0.315,1.064-0.398,1.631-0.429
		C22.121,0.322,21.217,1.029,20.443,1.714z"/>
</g>
<g>
</g>
<g>
</g>
<g>
</g>
<g>
</g>
<g>
</g>
<g>
</g>
<g>
</g>
<g>
</g>
<g>
</g>
<g>
</g>
<g>
</g>
<g>
</g>
<g>
</g>
<g>
</g>
<g>
</g>
</svg>
